<svg xmlns="http://www.w3.org/2000/svg"><style>:root svg:not(:target){display:none}</style><svg viewBox="0 0 530 530" fill="none" id="hero-bg"><circle opacity=".1" cx="265" cy="265" r="140" stroke="#D9D9D9" stroke-width="40"></circle><circle opacity=".1" cx="265" cy="265" r="207.5" stroke="#D9D9D9" stroke-width="25"></circle><circle opacity=".1" cx="265" cy="265" r="255" stroke="#D9D9D9" stroke-width="20"></circle></svg><svg viewBox="0 0 20 20" fill="none" id="location"><path d="M10 1.67a5.83 5.83 0 0 0-5.83 5.83c0 4.38 5.83 10.83 5.83 10.83s5.83-6.45 5.83-10.83c0-3.22-2.6-5.83-5.83-5.83Zm0 7.91a2.08 2.08 0 1 1 0-4.16 2.08 2.08 0 0 1 0 4.16Z" fill="#4B80C4"></path></svg><svg viewBox="0 0 50 50" fill="none" id="logo"><g filter="url(#logo_0)" fill="#4B80C4"><path fill-rule="evenodd" clip-rule="evenodd" d="M0 24.94c0 12.65 9.45 23.3 21.69 24.91l1.4.15.02-1.63v-24.4h-10.68v-3.75h10.68v-9.4h3.78v9.4h10.68v3.75h-10.68v24.4l.01 1.63 1.41-.15a25.16 25.16 0 0 0 21.69-24.91 24.97 24.97 0 0 0-25-24.94c-13.8 0-25 11.16-25 24.94Zm21.69.46v22.82a23.54 23.54 0 0 1-20.26-23.28 23.54 23.54 0 0 1 23.57-23.52 23.54 23.54 0 0 1 23.57 23.52c0 11.86-8.8 21.67-20.26 23.28v-22.82h10.69v-6.6h-10.69v-9.4h-6.62v9.4h-10.69v6.6h10.69Z"></path><path d="M26.89 48.37v-24.4h10.68v-3.75h-10.68v-9.4h-3.78v9.4h-10.68v3.75h10.68v24.4l-.01 1.63h3.8l-.01-1.63Z"></path></g><defs><filter id="logo_0" x="-15.234" y="-15.234" width="80.469" height="80.469" filterUnits="userSpaceOnUse" color-interpolation-filters="sRGB"><feFlood flood-opacity="0" result="BackgroundImageFix"></feFlood><feGaussianBlur in="BackgroundImageFix" stdDeviation="7.617"></feGaussianBlur><feComposite in2="SourceAlpha" operator="in" result="effect1_backgroundBlur_1_855"></feComposite><feBlend in="SourceGraphic" in2="effect1_backgroundBlur_1_855" result="shape"></feBlend></filter></defs></svg><svg viewBox="0 0 20 20" fill="none" id="phone"><path d="M5.52 9a12.62 12.62 0 0 0 5.49 5.48l1.83-1.83c.23-.22.56-.3.85-.2.94.3 1.94.48 2.98.48.45 0 .83.37.83.83v2.9c0 .46-.38.84-.83.84a14.17 14.17 0 0 1-14.17-14.17c0-.46.38-.83.83-.83h2.92c.46 0 .83.38.83.83 0 1.04.17 2.04.48 2.98.09.29.02.62-.21.85l-1.83 1.83Z" fill="#4B80C4"></path></svg><svg viewBox="0 0 31 30" fill="none" id="vk"><path d="M18.56 14.68c-.53-.2-.53-.97-.56-1.5-.14-1.9.53-4.82-.27-6.05-.56-.74-3.28-.67-4.94-.57-.46.07-1.02.17-1.42.37-.4.2-.8.53-.8.83 0 .44 1 .37 1.36.94.4.6.4 1.9.4 2.97 0 1.24-.2 2.87-.7 2.94-.76.03-1.19-.73-1.59-1.3-.8-1.1-1.59-2.47-2.18-3.81-.3-.7-.47-1.47-.9-1.77-.66-.47-1.86-.5-3.02-.47-1.06.03-2.58-.1-2.88.54-.23.7.27 1.36.53 1.93a46.08 46.08 0 0 0 4.6 8.05c1.67 2.3 3.22 4.15 6.27 5.11.86.27 4.64 1.04 5.4 0 .27-.4.2-1.3.34-1.97.13-.67.3-1.33.92-1.37.53-.03.83.44 1.16.77.37.37.67.67.93 1 .63.64 1.3 1.5 2.09 1.84 1.1.47 2.78.34 4.37.27 1.3-.03 2.23-.3 2.33-1.07.06-.6-.6-1.47-1-1.97-1-1.24-1.46-1.6-2.59-2.74-.5-.5-1.12-1.04-1.12-1.64-.04-.36.26-.7.53-1.07 1.16-1.73 2.32-2.97 3.38-4.77.3-.54 1-1.77.73-2.37-.3-.67-1.96-.47-2.98-.47-1.33 0-3.05-.1-3.39.16-.63.44-.9 1.14-1.19 1.8a19.76 19.76 0 0 1-2.48 4.28c-.34.4-.97 1.24-1.33 1.1Z" fill="#fff"></path></svg></svg>