<svg viewBox="0 0 50 50" fill="none" xmlns="http://www.w3.org/2000/svg"><g filter="url(#a)" fill="#4B80C4"><path fill-rule="evenodd" clip-rule="evenodd" d="M0 24.94c0 12.65 9.45 23.3 21.69 24.91l1.4.15.02-1.63v-24.4h-10.68v-3.75h10.68v-9.4h3.78v9.4h10.68v3.75h-10.68v24.4l.01 1.63 1.41-.15a25.16 25.16 0 0 0 21.69-24.91 24.97 24.97 0 0 0-25-24.94c-13.8 0-25 11.16-25 24.94Zm21.69.46v22.82a23.54 23.54 0 0 1-20.26-23.28 23.54 23.54 0 0 1 23.57-23.52 23.54 23.54 0 0 1 23.57 23.52c0 11.86-8.8 21.67-20.26 23.28v-22.82h10.69v-6.6h-10.69v-9.4h-6.62v9.4h-10.69v6.6h10.69Z"/><path d="M26.89 48.37v-24.4h10.68v-3.75h-10.68v-9.4h-3.78v9.4h-10.68v3.75h10.68v24.4l-.01 1.63h3.8l-.01-1.63Z"/></g><defs><filter id="a" x="-15.234" y="-15.234" width="80.469" height="80.469" filterUnits="userSpaceOnUse" color-interpolation-filters="sRGB"><feFlood flood-opacity="0" result="BackgroundImageFix"/><feGaussianBlur in="BackgroundImageFix" stdDeviation="7.617"/><feComposite in2="SourceAlpha" operator="in" result="effect1_backgroundBlur_1_855"/><feBlend in="SourceGraphic" in2="effect1_backgroundBlur_1_855" result="shape"/></filter></defs></svg>