<svg viewBox="0 0 31 30" fill="none" xmlns="http://www.w3.org/2000/svg"><path d="M18.56 14.68c-.53-.2-.53-.97-.56-1.5-.14-1.9.53-4.82-.27-6.05-.56-.74-3.28-.67-4.94-.57-.46.07-1.02.17-1.42.37-.4.2-.8.53-.8.83 0 .44 1 .37 1.36.94.4.6.4 1.9.4 2.97 0 1.24-.2 2.87-.7 2.94-.76.03-1.19-.73-1.59-1.3-.8-1.1-1.59-2.47-2.18-3.81-.3-.7-.47-1.47-.9-1.77-.66-.47-1.86-.5-3.02-.47-1.06.03-2.58-.1-2.88.54-.23.7.27 1.36.53 1.93a46.08 46.08 0 0 0 4.6 8.05c1.67 2.3 3.22 4.15 6.27 5.11.86.27 4.64 1.04 5.4 0 .27-.4.2-1.3.34-1.97.13-.67.3-1.33.92-1.37.53-.03.83.44 1.16.77.37.37.67.67.93 1 .63.64 1.3 1.5 2.09 1.84 1.1.47 2.78.34 4.37.27 1.3-.03 2.23-.3 2.33-1.07.06-.6-.6-1.47-1-1.97-1-1.24-1.46-1.6-2.59-2.74-.5-.5-1.12-1.04-1.12-1.64-.04-.36.26-.7.53-1.07 1.16-1.73 2.32-2.97 3.38-4.77.3-.54 1-1.77.73-2.37-.3-.67-1.96-.47-2.98-.47-1.33 0-3.05-.1-3.39.16-.63.44-.9 1.14-1.19 1.8a19.76 19.76 0 0 1-2.48 4.28c-.34.4-.97 1.24-1.33 1.1Z" fill="#fff"/></svg>